<svg width="13" height="10" viewBox="0 0 13 10" fill="none" xmlns="http://www.w3.org/2000/svg">
<path d="M2.1301 0.816372C1.88957 1.06827 1.88958 1.48786 2.1301 1.73976C2.1301 1.73976 2.1301 1.73977 2.1301 1.73977L5.24306 4.99999L2.1301 8.26018L2.13006 8.26014L2.12753 8.26296C1.89178 8.52529 1.88823 8.93028 2.13009 9.18358C2.37517 9.44032 2.77142 9.4364 3.02511 9.18628L3.02515 9.18632L3.02775 9.18359L6.57552 5.46805L6.57556 5.46809L6.57809 5.46527C6.81378 5.20297 6.81735 4.79806 6.57561 4.54475C6.57558 4.54472 6.57555 4.54469 6.57552 4.54466L3.0279 0.816528L3.02795 0.816484L3.0251 0.813675C2.77142 0.563616 2.37518 0.559698 2.1301 0.816372ZM2.1301 0.816372L2.22051 0.902697M2.1301 0.816372L2.22051 0.902697M2.22051 0.902697C2.4149 0.699101 2.7308 0.699101 2.93735 0.902697L2.22051 1.65344C2.02611 1.44985 2.02611 1.10628 2.22051 0.902697Z" fill="#0143C8" stroke="#0143C8" stroke-width="0.25"/>
<path d="M6.44822 0.816372C6.20769 1.06827 6.20769 1.48786 6.44822 1.73976C6.44822 1.73976 6.44822 1.73977 6.44822 1.73977L9.56117 4.99999L6.44822 8.26018L6.44818 8.26014L6.44565 8.26296C6.2099 8.52529 6.20634 8.93028 6.4482 9.18358C6.69328 9.44032 7.08954 9.4364 7.34322 9.18628L7.34326 9.18632L7.34587 9.18359L10.8936 5.46805L10.8937 5.46809L10.8962 5.46527C11.1319 5.20297 11.1355 4.79806 10.8937 4.54475C10.8937 4.54472 10.8937 4.54469 10.8936 4.54466L7.34602 0.816528L7.34606 0.816484L7.34321 0.813675C7.08953 0.563616 6.69329 0.559698 6.44822 0.816372ZM6.44822 0.816372L6.53862 0.902697M6.44822 0.816372L6.53862 0.902697M6.53862 0.902697C6.73302 0.699101 7.04892 0.699101 7.25546 0.902697L6.53862 1.65344C6.34422 1.44985 6.34422 1.10628 6.53862 0.902697Z" fill="#0143C8" stroke="#0143C8" stroke-width="0.25"/>
</svg>
