<svg  xmlns="http://www.w3.org/2000/svg" viewBox="0 0 301.31 335.02">
    <path d="M262.8,164.35c-13.42,77.8-76.44,116.78-81.79,119.97-17.85,11-30.61,17.1-49.58,22.76-8.56,2.55-13.1,10.11-11.91,15.34,.02,.09,.05,.18,.08,.27l-.02,.02c2.58,15.56,41.72,25.86,95.44-29.87,53.2-55.2,47.89-127.09,47.78-128.48Z" fill="white"/>
    <path d="M248,160.32c5.15-14.65,9.25-34.64,11.35-49,2.28,.22,41.97,12.88,41.97,12.88L246.04,0l-88.54,111.77,48.96-7.06c-5.26,62.02-46.28,141.85-118.38,131.37-21.3-3.33-39.13-17.62-46.87-36.16-11.92-28.58-6-58.66,9.04-84.57,1.94,13.1,8.81,32.95,31.8,43.7,32.18,15.04,58.34-6.85,61.74-15.96-28.59,14.5-46.38-5.72-46.38-5.72-4.91-5.19-8.61-12.07-10.21-19.64-.78-4.73-4.29-24.1,10.75-44.64,17.51-21.98,45.48-29.16,70.69-29.97l13.34-15.72c-24.98-2.47-50.78,1.79-74.27,10.41C47.05,61.19-4.19,118.75,.27,186.11c2.99,64.28,57.03,104.53,119.63,96.92,63.88-8.2,109.21-64.65,128.09-122.71Z" fill="white"/>
</svg>