<svg width="497" height="475" viewBox="0 0 497 475" fill="none" xmlns="http://www.w3.org/2000/svg">
<path d="M263.516 17.8803L326.533 128.224C331.509 136.938 339.986 143.096 349.81 145.136L474.227 170.971C487.11 173.646 492.201 189.314 483.35 199.05L397.88 293.082C391.131 300.507 387.894 310.471 388.989 320.445L402.866 446.756C404.303 459.835 390.975 469.519 378.98 464.11L263.139 411.881C253.992 407.757 243.515 407.757 234.367 411.881L118.527 464.11C106.532 469.519 93.2041 459.835 94.6409 446.756L108.517 320.445C109.613 310.471 106.375 300.507 99.6264 293.082L14.1565 199.05C5.30633 189.314 10.3971 173.646 23.28 170.971L147.697 145.136C157.521 143.096 165.998 136.938 170.974 128.224L233.991 17.8804C240.516 6.45461 256.99 6.45461 263.516 17.8803Z" fill="#FBAA07" stroke="#0B0B0E" stroke-width="18"/>
</svg>