<svg width="25" height="24" viewBox="0 0 25 24" fill="none" xmlns="http://www.w3.org/2000/svg">
<g clip-path="url(#clip0_99_1237)">
<path d="M20.817 4.53036C19.2873 3.82203 17.647 3.30015 15.9319 3.00125C15.9007 2.99549 15.8694 3.0099 15.8534 3.03874C15.6424 3.41741 15.4087 3.91141 15.2451 4.2997C13.4004 4.02098 11.5652 4.02098 9.75832 4.2997C9.59466 3.90276 9.35248 3.41741 9.14058 3.03874C9.1245 3.01086 9.09328 2.99645 9.06206 3.00125C7.34792 3.29919 5.70756 3.82107 4.17694 4.53036C4.16369 4.53613 4.15234 4.54574 4.14477 4.55823C1.03339 9.24935 0.18105 13.8251 0.59918 18.3442C0.601072 18.3663 0.61337 18.3875 0.630398 18.4009C2.68321 19.9223 4.67169 20.846 6.62328 21.4582C6.6545 21.4678 6.68761 21.4563 6.70748 21.4303C7.16912 20.7941 7.58063 20.1232 7.93349 19.4178C7.9543 19.3764 7.93443 19.3274 7.89186 19.3111C7.23913 19.0612 6.61761 18.7565 6.01974 18.4105C5.97244 18.3827 5.96865 18.3144 6.01217 18.2817C6.13799 18.1866 6.2638 18.0876 6.38395 17.9877C6.4057 17.9694 6.43598 17.9655 6.46152 17.9771C10.3893 19.7868 14.6415 19.7868 18.523 17.9771C18.5485 17.9646 18.5788 17.9684 18.6015 17.9867C18.7216 18.0866 18.8474 18.1866 18.9742 18.2817C19.0177 18.3144 19.0149 18.3827 18.9676 18.4105C18.3697 18.7633 17.7482 19.0612 17.0945 19.3101C17.0519 19.3265 17.033 19.3764 17.0538 19.4178C17.4143 20.1223 17.8258 20.7931 18.2789 21.4293C18.2978 21.4563 18.3319 21.4678 18.3631 21.4582C20.3241 20.846 22.3126 19.9223 24.3654 18.4009C24.3834 18.3875 24.3948 18.3673 24.3967 18.3452C24.8971 13.1207 23.5585 8.58235 20.8482 4.55919C20.8416 4.54574 20.8303 4.53613 20.817 4.53036ZM8.52001 15.5926C7.33751 15.5926 6.36313 14.4969 6.36313 13.1514C6.36313 11.8059 7.31859 10.7102 8.52001 10.7102C9.73088 10.7102 10.6958 11.8155 10.6769 13.1514C10.6769 14.4969 9.72142 15.5926 8.52001 15.5926ZM16.4948 15.5926C15.3123 15.5926 14.3379 14.4969 14.3379 13.1514C14.3379 11.8059 15.2933 10.7102 16.4948 10.7102C17.7056 10.7102 18.6705 11.8155 18.6516 13.1514C18.6516 14.4969 17.7056 15.5926 16.4948 15.5926Z" fill="white"/>
</g>
<defs>
<clipPath id="clip0_99_1237">
<rect width="24" height="24" fill="white" transform="translate(0.5)"/>
</clipPath>
</defs>
</svg>
