<svg width="328" height="328" viewBox="0 0 328 328" fill="none" xmlns="http://www.w3.org/2000/svg">
<rect opacity="0.5" x="-2" y="2" width="108" height="108" transform="matrix(-1 0 0 1 108 216)" fill="#FF335F" stroke="#F2F6FF" stroke-width="4"/>
<rect opacity="0.27" x="-2" y="2" width="108" height="108" transform="matrix(-1 0 0 1 108 108)" fill="#CC002C" stroke="#F2F6FF" stroke-width="4"/>
<rect opacity="0.02" x="-2" y="2" width="108" height="108" transform="matrix(-1 0 0 1 108 0)" fill="#660016" stroke="#F2F6FF" stroke-width="4"/>
<rect opacity="0.02" x="-2" y="2" width="108" height="108" transform="matrix(-1 0 0 1 216 108)" fill="#660016" stroke="#F2F6FF" stroke-width="4"/>
<rect opacity="0.27" x="-2" y="2" width="108" height="108" transform="matrix(-1 0 0 1 216 216)" fill="#CC002C" stroke="#F2F6FF" stroke-width="4"/>
<rect opacity="0.02" x="-2" y="2" width="108" height="108" transform="matrix(-1 0 0 1 324 216)" fill="#660016" stroke="#F2F6FF" stroke-width="4"/>
</svg>
