<svg width="328" height="328" viewBox="0 0 328 328" fill="none" xmlns="http://www.w3.org/2000/svg">
<rect opacity="0.5" x="-2" y="2" width="108" height="108" transform="matrix(-1 0 0 1 108 216)" fill="url(#paint0_linear_10_275)" stroke="#F2F6FF" stroke-width="4"/>
<rect opacity="0.27" x="-2" y="2" width="108" height="108" transform="matrix(-1 0 0 1 108 108)" fill="url(#paint1_linear_10_275)" stroke="#F2F6FF" stroke-width="4"/>
<rect opacity="0.02" x="-2" y="2" width="108" height="108" transform="matrix(-1 0 0 1 108 0)" fill="url(#paint2_linear_10_275)" stroke="#F2F6FF" stroke-width="4"/>
<rect opacity="0.02" x="-2" y="2" width="108" height="108" transform="matrix(-1 0 0 1 216 108)" fill="url(#paint3_linear_10_275)" stroke="#F2F6FF" stroke-width="4"/>
<rect opacity="0.27" x="-2" y="2" width="108" height="108" transform="matrix(-1 0 0 1 216 216)" fill="url(#paint4_linear_10_275)" stroke="#F2F6FF" stroke-width="4"/>
<rect opacity="0.02" x="-2" y="2" width="108" height="108" transform="matrix(-1 0 0 1 324 216)" fill="url(#paint5_linear_10_275)" stroke="#F2F6FF" stroke-width="4"/>
<defs>
<linearGradient id="paint0_linear_10_275" x1="-29" y1="-28.9091" x2="134.5" y2="134.591" gradientUnits="userSpaceOnUse">
<stop stop-color="#0143C8"/>
<stop offset="1" stop-color="#0145CE"/>
</linearGradient>
<linearGradient id="paint1_linear_10_275" x1="-29" y1="-28.9091" x2="134.5" y2="134.591" gradientUnits="userSpaceOnUse">
<stop stop-color="#234B9C"/>
<stop offset="1" stop-color="#012672"/>
</linearGradient>
<linearGradient id="paint2_linear_10_275" x1="-29" y1="-28.9091" x2="134.5" y2="134.591" gradientUnits="userSpaceOnUse">
<stop stop-color="#689AFF"/>
<stop offset="1" stop-color="#B0CAFF"/>
</linearGradient>
<linearGradient id="paint3_linear_10_275" x1="-29" y1="-28.9091" x2="134.5" y2="134.591" gradientUnits="userSpaceOnUse">
<stop stop-color="#689AFF"/>
<stop offset="1" stop-color="#B0CAFF"/>
</linearGradient>
<linearGradient id="paint4_linear_10_275" x1="-29" y1="-28.9091" x2="134.5" y2="134.591" gradientUnits="userSpaceOnUse">
<stop stop-color="#588AEF"/>
<stop offset="1" stop-color="#1355D9"/>
</linearGradient>
<linearGradient id="paint5_linear_10_275" x1="-29" y1="-28.9091" x2="134.5" y2="134.591" gradientUnits="userSpaceOnUse">
<stop stop-color="#689AFF"/>
<stop offset="1" stop-color="#B0CAFF"/>
</linearGradient>
</defs>
</svg>
